PathFileType	4	(X/Y/Z)	s06c0202.trc
DataRate	CameraRate	NumFrames	NumMarkers	Units	OrigDataRate	OrigDataStartFrame	OrigNumFrames
200	200	7	48	mm	200	1500	2000
Frame#	Time	racr			lacr			c7			jug			rlel			rdr			llel			ldr			s2			lic			ric			lasi			rasi			rpsi			lpsi			rgt			lgt			rth1			rth2			rth3			rth4			rlfc			rmfc			rsh1			rsh2			rsh3			rsh4			rlmal			rcal			rtoe			rmt5			lth1			lth2			lth4			lth3			llfc			lmfc			llmal			lcal			lmt5			lsh1			lsh2			lsh3			lsh4			ltoe			SBIKE			LBIKE			RBIKE			
		X1	Y1	Z1	X2	Y2	Z2	X3	Y3	Z3	X4	Y4	Z4	X5	Y5	Z5	X6	Y6	Z6	X7	Y7	Z7	X8	Y8	Z8	X9	Y9	Z9	X10	Y10	Z10	X11	Y11	Z11	X12	Y12	Z12	X13	Y13	Z13	X14	Y14	Z14	X15	Y15	Z15	X16	Y16	Z16	X17	Y17	Z17	X18	Y18	Z18	X19	Y19	Z19	X20	Y20	Z20	X21	Y21	Z21	X22	Y22	Z22	X23	Y23	Z23	X24	Y24	Z24	X25	Y25	Z25	X26	Y26	Z26	X27	Y27	Z27	X28	Y28	Z28	X29	Y29	Z29	X30	Y30	Z30	X31	Y31	Z31	X32	Y32	Z32	X33	Y33	Z33	X34	Y34	Z34	X35	Y35	Z35	X36	Y36	Z36	X37	Y37	Z37	X38	Y38	Z38	X39	Y39	Z39	X40	Y40	Z40	X41	Y41	Z41	X42	Y42	Z42	X43	Y43	Z43	X44	Y44	Z44	X45	Y45	Z45	X46	Y46	Z46	X47	Y47	Z47	X48	Y48	Z48	
1500	7.5000	525.937364	1212.985949	-64.519693	561.729625	1194.795972	-377.778396	543.228825	1310.492763	-222.423320	520.213642	1145.743022	-217.113185	462.470941	979.884660	64.953039	648.220895	921.553159	-53.418430	466.966571	976.651173	-507.840400	651.746046	911.585254	-404.116643	-8.779031	1140.038851	-253.903780	154.539536	1086.156653	-402.605649	120.891579	1111.887257	-75.368842	161.763265	1038.653799	-363.317074	150.102306	1069.109722	-105.834269	21.338310	1176.073018	-219.819865	27.548848	1170.391698	-279.147305	95.469667	1046.899792	-38.526648	116.357041	1019.086145	-435.688161	191.769738	949.650884	-22.394544	267.261543	899.749552	-26.061778	306.684926	821.934266	-29.247152	291.097658	923.454231	-44.318801	353.265868	724.096284	-46.663119	352.681433	699.030343	-154.154306	323.736131	601.325163	-21.394444	325.563891	515.379047	-41.933184	286.859370	437.947350	-46.061580	347.663381	515.334667	-75.077919	259.730300	357.377110	-51.849010	197.173411	323.436558	-99.616578	474.056855	317.558347	-99.676900	378.281346	290.955450	-30.046722	171.172052	916.495132	-452.022683	247.386423	874.202335	-450.555443	272.738630	899.624710	-439.774002	293.054633	797.388286	-448.869900	329.083080	694.478884	-418.723054	331.684249	685.474936	-302.597986	34.566210	481.311974	-376.239916	-37.942133	507.008922	-326.333871	78.670351	350.750179	-403.146296	251.341226	618.572880	-429.446643	196.126640	558.695630	-398.604794	113.590083	526.835382	-391.127007	213.569698	544.989785	-364.592155	149.198304	297.629822	-346.389547	-202.882853	865.768465	-215.997171	-49.169718	79.716069	-415.346943	-49.166213	79.793656	-17.815143	
1501	7.5050	526.117204	1214.173187	-65.349851	561.446200	1196.479959	-378.829828	542.703571	1311.490623	-223.132744	520.278899	1147.212806	-218.173983	462.745161	981.108136	64.428693	648.852436	921.801417	-53.227234	467.493014	977.923461	-509.539921	651.859200	912.030246	-405.134736	-8.504498	1140.325020	-252.795632	153.938927	1087.560160	-402.787226	121.406297	1111.932874	-74.920836	161.699774	1040.235814	-362.892070	151.111822	1069.663876	-105.612967	21.709410	1176.159165	-218.794359	27.418846	1170.945308	-277.764709	95.165366	1044.922935	-38.720042	117.309018	1021.572750	-435.339587	189.011700	944.473557	-21.172966	263.448269	891.765286	-25.021504	300.166778	812.984705	-29.106619	288.099976	915.459408	-42.450019	345.743223	714.621761	-46.158550	344.229967	689.269339	-153.572562	317.456644	591.687645	-21.231829	320.693966	505.778075	-41.314016	282.990156	427.796841	-45.427390	342.585664	506.142547	-74.661818	257.097220	346.594209	-51.322163	194.563926	312.683621	-98.958490	471.055352	305.883381	-100.876300	375.841037	280.334722	-29.883668	173.099996	920.973224	-451.909267	250.256316	880.603840	-450.478562	274.993577	906.259547	-438.649703	297.627137	804.819758	-450.167315	334.908346	701.936257	-419.980610	337.318071	692.705438	-303.887231	38.435117	491.855635	-376.611100	-34.030257	518.230056	-326.418248	81.447800	361.040771	-403.265160	256.526466	626.783752	-430.432275	200.816541	567.386427	-399.589840	117.836952	536.460749	-391.653993	218.577586	554.133868	-366.401492	151.661925	307.454770	-346.430676	-202.873486	865.766578	-215.959015	-49.143686	79.723139	-415.349565	-49.152897	79.779083	-17.823858	
1502	7.5100	526.364625	1215.491240	-66.222171	561.220178	1198.096117	-379.814074	542.304853	1312.491456	-224.026021	520.246403	1148.710041	-219.286575	462.989808	982.718811	64.054056	649.370779	922.004692	-53.218109	468.009488	978.965883	-511.189876	652.010392	912.744863	-406.337695	-8.110237	1140.609332	-251.740442	153.314169	1089.120053	-403.017579	122.127422	1112.083753	-74.230595	161.650637	1041.840529	-362.241654	152.307299	1070.334232	-105.166738	22.098606	1176.369617	-217.551616	27.522227	1171.375630	-276.770757	94.938436	1042.928182	-38.782966	118.175939	1024.124309	-434.883154	185.878598	939.101177	-20.081642	259.459377	883.890810	-24.785657	292.871530	803.477878	-29.450888	284.006790	905.801563	-41.352680	337.738401	705.050996	-45.746938	334.870948	679.829928	-153.492888	311.445387	581.988366	-20.472568	315.370066	496.187150	-40.800839	278.605838	417.758652	-44.813698	336.660883	496.786908	-74.252609	253.783630	336.048805	-50.794459	191.987651	301.511445	-98.932944	467.925465	295.191025	-101.209233	372.815668	269.871107	-29.782418	174.982015	925.845482	-451.406864	253.085620	887.173110	-450.290866	277.091579	913.131079	-437.525453	302.276390	812.528063	-451.178436	340.747563	709.646310	-421.251177	340.253984	700.154182	-306.533864	42.671625	502.258224	-376.890206	-29.640861	529.093767	-326.788175	84.745582	371.144986	-403.114890	261.937016	635.005935	-431.328104	205.543031	576.115638	-400.032829	122.381620	546.095306	-392.290353	222.804986	562.178752	-366.079026	154.702728	317.289295	-346.434636	-202.865408	865.774093	-215.901755	-49.138205	79.732967	-415.349475	-49.159701	79.806900	-17.808166	
1503	7.5150	526.594282	1216.804772	-67.233038	560.964611	1199.751517	-380.930588	542.021283	1313.502191	-225.018151	520.280178	1150.017435	-220.514287	463.545119	984.306498	63.437025	649.757997	922.116975	-53.433701	468.539102	980.022091	-513.029024	652.108036	913.590615	-407.487323	-7.726729	1140.742946	-250.352873	152.498469	1090.597827	-403.131454	123.029241	1112.281511	-73.539975	161.673317	1043.607397	-361.549143	153.693736	1071.025457	-104.658312	22.620652	1176.291536	-216.317195	27.500291	1171.941882	-275.820297	94.755969	1040.724426	-38.734896	118.933220	1026.885258	-434.259516	183.296371	933.502027	-19.708101	254.483294	876.224870	-24.024885	285.623540	794.957124	-29.921639	281.966427	899.216150	-38.406028	328.970035	695.421347	-45.553526	325.814934	670.095002	-152.784007	305.241185	572.185854	-20.022932	309.545343	486.643359	-40.524552	273.740102	407.708534	-44.284267	330.609268	487.445211	-74.113767	250.028142	325.848891	-50.251015	188.158650	291.415099	-98.064096	464.067950	284.868881	-101.397569	369.207672	259.618685	-29.654893	176.802303	930.891813	-450.515263	255.838140	894.028475	-449.981438	279.201924	920.215295	-436.365820	306.682519	820.458290	-451.970067	346.649291	717.750392	-422.341247	346.359455	708.117430	-307.519873	47.210475	512.547896	-377.229186	-24.971804	539.940064	-327.524013	88.977597	381.193188	-403.154150	267.510691	643.352202	-432.192507	210.754552	585.104264	-400.857062	127.298649	555.543259	-392.784445	227.908838	570.913077	-366.812081	158.489542	327.017214	-346.577572	-202.840357	865.785494	-215.821407	-49.142294	79.728132	-415.350742	-49.151405	79.786947	-17.816222	
1504	7.5200	526.875863	1218.207796	-68.355305	560.720466	1201.457595	-382.070204	541.984611	1314.584796	-226.352232	520.211033	1151.518160	-221.845338	464.269650	985.976509	62.799832	650.024086	922.105874	-53.840758	469.097229	980.903776	-514.600733	652.261328	914.113967	-408.311786	-7.458777	1140.991532	-248.778856	151.619925	1092.125677	-403.292781	123.595937	1112.617974	-72.845848	161.756846	1045.474695	-360.784734	154.827370	1071.980612	-104.211157	23.120986	1176.501427	-214.780760	27.475145	1172.334570	-274.503783	94.695590	1038.447866	-38.579020	119.670231	1029.923340	-433.582214	180.942479	928.319970	-19.368122	249.860524	868.958050	-22.679412	278.563443	786.572209	-29.755101	278.411612	891.230580	-37.192342	320.041568	686.070868	-45.184811	316.074351	660.292065	-152.145969	297.600120	562.834424	-19.770887	303.339193	477.138010	-40.161428	268.454604	397.826852	-43.797784	324.009009	478.273344	-74.059575	245.743917	315.983679	-49.674518	183.771430	281.938276	-97.193573	459.668139	274.607259	-101.600928	365.073566	249.630522	-29.501563	178.681021	936.297026	-449.461073	258.524010	901.090013	-449.597166	281.305327	927.463534	-435.316983	310.864777	828.619690	-452.607692	352.532385	726.033802	-423.386711	352.859621	716.524078	-308.144136	52.238832	522.506206	-377.486791	-20.126572	549.835204	-327.185349	93.544275	391.038632	-403.212111	273.261074	651.952423	-432.888889	216.137125	594.093085	-401.560888	132.472349	565.075298	-393.280652	233.634904	580.080895	-368.465333	162.985366	336.772237	-346.572577	-202.843285	865.738410	-215.717445	-49.135859	79.757867	-415.341079	-49.144737	79.798158	-17.815850	
1505	7.5250	527.167758	1219.602230	-69.620316	560.389011	1203.060028	-383.273335	542.223053	1315.807166	-227.787246	520.416527	1153.100526	-224.032226	465.010153	987.729206	62.135854	650.284923	921.940981	-54.384282	469.672328	981.882864	-516.330159	652.434025	914.589914	-408.839439	-7.063386	1141.138327	-247.140620	150.643397	1093.666853	-403.351583	124.903187	1112.850869	-72.031744	161.977584	1047.308118	-360.076948	156.393745	1072.624357	-103.664472	23.533237	1176.598731	-213.198099	27.397501	1172.940125	-272.775615	94.678863	1036.042370	-38.363488	120.215177	1033.139193	-432.662722	178.120429	922.832928	-18.387349	245.106465	861.191153	-22.107333	271.440056	778.146778	-29.731623	274.479263	882.945967	-36.076070	311.080955	676.855180	-44.788443	305.783987	650.289142	-151.354674	290.053533	553.599307	-19.445589	296.537363	468.015301	-39.935355	262.661918	388.240014	-43.363298	317.811543	468.965490	-74.683160	240.955794	306.671983	-49.140111	178.859120	272.947997	-96.441964	454.847204	264.439802	-101.730243	360.326204	239.996345	-29.342241	180.529004	941.858263	-448.361019	261.095904	908.277328	-449.145590	283.310764	934.906447	-434.321291	314.981325	836.991526	-453.152660	358.563455	734.620034	-424.228627	359.363149	725.065769	-308.783781	57.499368	532.348085	-377.710510	-14.973396	559.580197	-327.568304	98.720338	400.812867	-403.434476	279.141159	660.667587	-433.533688	221.716822	603.123628	-402.129228	137.893902	574.573151	-393.758598	239.448778	589.646368	-369.973118	168.053970	346.454061	-346.691727	-202.812534	865.820618	-215.768283	-49.130381	79.732807	-415.350966	-49.139354	79.818548	-17.808380	
1506	7.5300	527.511650	1220.961639	-71.022343	560.086722	1204.549744	-384.456131	542.675867	1316.955010	-229.429433	520.179150	1154.299924	-225.293885	465.857990	989.543699	61.374514	650.510929	921.738193	-54.970785	470.248480	982.661222	-517.731872	652.603243	915.077036	-409.222176	-7.336615	1140.868825	-244.138185	149.631819	1095.200218	-403.297342	126.348986	1113.052949	-71.084940	162.251708	1049.167079	-359.579846	158.080658	1073.221284	-102.973964	24.115523	1176.646152	-211.485359	27.377890	1173.344727	-271.125367	94.836297	1033.643225	-38.034636	120.685688	1036.705179	-431.752161	175.316057	917.326047	-17.645232	240.890172	853.676350	-21.633798	263.657321	769.667058	-30.759043	270.787753	874.204501	-34.966561	301.835006	667.695551	-44.370346	295.113882	640.753031	-150.863001	281.889528	544.842756	-19.089972	289.301454	459.383994	-39.601688	256.393806	379.200609	-42.971856	310.012319	461.041161	-73.806005	235.833699	297.985337	-48.713427	173.511857	264.666445	-95.826740	449.374547	254.796378	-101.817274	355.005240	230.679458	-29.209690	182.273296	947.461037	-447.194850	263.533914	915.570294	-448.600000	285.283910	942.439511	-433.532372	318.827784	845.486461	-453.867833	364.439622	743.605667	-424.990353	366.793663	734.412876	-308.771202	63.157786	541.759537	-377.960057	-9.261382	569.009120	-327.596766	104.387009	410.140061	-403.523952	285.100572	669.536045	-434.074411	227.544992	612.174816	-402.652129	143.636615	583.880123	-394.182639	245.312631	598.572020	-370.588812	173.805963	355.905767	-346.690211	-202.792306	865.821990	-215.721380	-49.131220	79.770634	-415.322738	-49.153936	79.797768	-17.802635	
